<svg width="375" height="80" viewBox="0 0 375 80" fill="none" xmlns="http://www.w3.org/2000/svg">
<rect width="375" height="80" fill="white"/>
<circle cx="41" cy="40" r="12" fill="#ECEFF2"/>
<circle cx="28" cy="40" r="12" fill="#2A6CEA"/>
<path d="M67.22 46.2C64.9667 46.2 63.84 45.1 63.84 42.9V37.6H62.5V35.54H63.84V33.28H66.72V35.54H68.92V37.6H66.72V42.64C66.72 43.4667 67.1067 43.88 67.88 43.88C68.3067 43.88 68.6733 43.8133 68.98 43.68V45.92C68.4467 46.1067 67.86 46.2 67.22 46.2ZM75.9934 46.22C74.3668 46.22 73.0668 45.7467 72.0934 44.8C71.0534 43.84 70.5334 42.54 70.5334 40.9V40.74C70.5334 39.1133 71.0534 37.7933 72.0934 36.78C73.1068 35.7933 74.3801 35.3 75.9134 35.3C77.3668 35.3 78.5534 35.72 79.4734 36.56C80.5001 37.4933 81.0134 38.8467 81.0134 40.62V41.42H73.4734C73.5134 42.3 73.7534 42.98 74.1934 43.46C74.6468 43.9267 75.2734 44.16 76.0734 44.16C77.3268 44.16 78.0534 43.6733 78.2534 42.7H80.9934C80.8201 43.8333 80.3001 44.7067 79.4334 45.32C78.5801 45.92 77.4334 46.22 75.9934 46.22ZM78.1934 39.64C78.1001 38.08 77.3401 37.3 75.9134 37.3C75.2601 37.3 74.7201 37.5067 74.2934 37.92C73.8801 38.32 73.6201 38.8933 73.5134 39.64H78.1934ZM87.0438 46.22C85.6304 46.22 84.5304 45.92 83.7438 45.32C82.9571 44.72 82.5371 43.8533 82.4838 42.72H85.1838C85.2638 43.2267 85.4371 43.6 85.7038 43.84C85.9704 44.08 86.4104 44.2 87.0238 44.2C88.1171 44.2 88.6638 43.82 88.6638 43.06C88.6638 42.7 88.5038 42.4333 88.1838 42.26C87.8638 42.0733 87.3171 41.9267 86.5438 41.82C85.1304 41.5933 84.1438 41.2533 83.5838 40.8C82.9838 40.3333 82.6838 39.5867 82.6838 38.56C82.6838 37.5333 83.1104 36.7133 83.9638 36.1C84.6971 35.5667 85.6504 35.3 86.8238 35.3C88.0371 35.3 89.0171 35.54 89.7638 36.02C90.5504 36.5533 91.0104 37.3933 91.1438 38.54H88.4838C88.4038 38.1 88.2371 37.78 87.9838 37.58C87.7304 37.38 87.3504 37.28 86.8438 37.28C86.3771 37.28 86.0104 37.38 85.7438 37.58C85.4904 37.78 85.3638 38.04 85.3638 38.36C85.3638 38.6933 85.5038 38.94 85.7838 39.1C86.0771 39.26 86.6104 39.3933 87.3838 39.5C88.7571 39.6867 89.7638 40 90.4038 40.44C91.0971 40.96 91.4438 41.74 91.4438 42.78C91.4438 43.9 91.0571 44.7533 90.2838 45.34C89.5238 45.9267 88.4438 46.22 87.0438 46.22ZM97.3372 46.2C95.0839 46.2 93.9572 45.1 93.9572 42.9V37.6H92.6172V35.54H93.9572V33.28H96.8372V35.54H99.0372V37.6H96.8372V42.64C96.8372 43.4667 97.2239 43.88 97.9972 43.88C98.4239 43.88 98.7905 43.8133 99.0972 43.68V45.92C98.5639 46.1067 97.9772 46.2 97.3372 46.2ZM101.551 31.7H104.791V43.46H110.611V46H101.551V31.7ZM115.556 46.22C114.543 46.22 113.723 45.9733 113.096 45.48C112.403 44.9333 112.056 44.14 112.056 43.1C112.056 41.94 112.563 41.0733 113.576 40.5C114.483 39.9933 115.789 39.74 117.496 39.74H118.676V39.32C118.676 38.6533 118.549 38.1667 118.296 37.86C118.056 37.5533 117.616 37.4 116.976 37.4C115.949 37.4 115.356 37.8933 115.196 38.88H112.456C112.536 37.7067 113.023 36.8 113.916 36.16C114.729 35.5867 115.809 35.3 117.156 35.3C118.503 35.3 119.556 35.5933 120.316 36.18C121.129 36.82 121.536 37.82 121.536 39.18V46H118.716V44.74C118.009 45.7267 116.956 46.22 115.556 46.22ZM116.416 44.2C117.069 44.2 117.609 44.0333 118.036 43.7C118.463 43.3667 118.676 42.9133 118.676 42.34V41.46H117.556C116.676 41.46 116.009 41.5733 115.556 41.8C115.116 42.0267 114.896 42.4067 114.896 42.94C114.896 43.78 115.403 44.2 116.416 44.2ZM130.499 46.22C129.713 46.22 129.026 46.0533 128.439 45.72C127.866 45.3733 127.439 44.9133 127.159 44.34V46H124.259V30.8H127.159V37.18C127.466 36.6333 127.913 36.1867 128.499 35.84C129.099 35.48 129.766 35.3 130.499 35.3C131.819 35.3 132.899 35.76 133.739 36.68C134.619 37.64 135.059 38.9667 135.059 40.66V40.82C135.059 42.5 134.626 43.8267 133.759 44.8C132.933 45.7467 131.846 46.22 130.499 46.22ZM129.639 43.96C130.439 43.96 131.053 43.7 131.479 43.18C131.906 42.6467 132.119 41.8667 132.119 40.84V40.68C132.119 39.64 131.893 38.8533 131.439 38.32C130.986 37.7867 130.379 37.52 129.619 37.52C128.833 37.52 128.206 37.7933 127.739 38.34C127.286 38.8733 127.059 39.6533 127.059 40.68V40.84C127.059 41.8667 127.286 42.6467 127.739 43.18C128.193 43.7 128.826 43.96 129.639 43.96Z" fill="#191C1F"/>
<rect x="339.515" y="47.071" width="22" height="2" transform="rotate(-45 339.515 47.071)" fill="#191C1F"/>
<rect x="340.929" y="31.5146" width="22" height="2" transform="rotate(45 340.929 31.5146)" fill="#191C1F"/>
</svg>
